<?xml version="1.0" encoding="utf-8"?>
<!-- Generator: Adobe Illustrator 15.0.0, SVG Export Plug-In  -->
<!DOCTYPE svg PUBLIC "-//W3C//DTD SVG 1.1//EN" "http://www.w3.org/Graphics/SVG/1.1/DTD/svg11.dtd" [
	<!ENTITY ns_flows "http://ns.adobe.com/Flows/1.0/">
]>
<svg version="1.1"
	 xmlns="http://www.w3.org/2000/svg" xmlns:xlink="http://www.w3.org/1999/xlink" xmlns:a="http://ns.adobe.com/AdobeSVGViewerExtensions/3.0/"
	 x="0px" y="0px" width="80px" height="17px" viewBox="0 0 80 17" overflow="visible" enable-background="new 0 0 80 17"
	 xml:space="preserve">
<defs>
</defs>
<path fill="#FFFFFF" d="M11.235,13.505H8.964L7.72,9.596H3.396l-1.185,3.909H0L4.285,0.197h2.646L11.235,13.505z M7.345,7.956
	L6.22,4.481C6.101,4.126,5.877,3.29,5.549,1.974h-0.04C5.377,2.54,5.166,3.376,4.877,4.481L3.771,7.956H7.345z"/>
<path fill="#FFFFFF" d="M22.233,8.589c0,1.632-0.443,2.922-1.33,3.869c-0.794,0.843-1.781,1.264-2.958,1.264
	c-1.271,0-2.185-0.453-2.74-1.361v5.035h-2.132V7.063c0-1.025-0.027-2.076-0.079-3.154h1.875l0.119,1.521h0.04
	c0.711-1.146,1.79-1.72,3.238-1.72c1.132,0,2.077,0.447,2.833,1.342C21.854,5.95,22.233,7.128,22.233,8.589z M20.061,8.667
	c0-0.934-0.21-1.704-0.632-2.311c-0.461-0.631-1.08-0.947-1.856-0.947c-0.526,0-1.004,0.176-1.431,0.523
	c-0.428,0.35-0.708,0.807-0.839,1.373c-0.066,0.264-0.099,0.479-0.099,0.648v1.602c0,0.696,0.214,1.285,0.642,1.768
	c0.428,0.479,0.984,0.721,1.668,0.721c0.803,0,1.428-0.311,1.875-0.928C19.837,10.497,20.061,9.681,20.061,8.667z"/>
<path fill="#FFFFFF" d="M33.27,8.589c0,1.632-0.443,2.922-1.33,3.869c-0.795,0.843-1.781,1.264-2.959,1.264
	c-1.271,0-2.185-0.453-2.74-1.361v5.035h-2.132V7.063c0-1.025-0.027-2.076-0.079-3.154h1.875l0.119,1.521h0.04
	c0.71-1.146,1.789-1.72,3.238-1.72c1.131,0,2.076,0.447,2.834,1.342C32.89,5.95,33.27,7.128,33.27,8.589z M31.097,8.667
	c0-0.934-0.211-1.704-0.633-2.311c-0.461-0.631-1.078-0.947-1.854-0.947c-0.526,0-1.004,0.176-1.433,0.523
	c-0.428,0.35-0.707,0.807-0.838,1.373c-0.065,0.264-0.101,0.479-0.101,0.648v1.602c0,0.696,0.215,1.285,0.642,1.768
	c0.428,0.479,0.983,0.721,1.67,0.721c0.804,0,1.429-0.311,1.875-0.928C30.873,10.497,31.097,9.681,31.097,8.667z"/>
<path fill="#FFFFFF" d="M45.61,9.772c0,1.133-0.396,2.054-1.183,2.765c-0.866,0.776-2.075,1.165-3.625,1.165
	c-1.433,0-2.58-0.276-3.446-0.829l0.493-1.777c0.935,0.554,1.962,0.83,3.08,0.83c0.804,0,1.429-0.182,1.875-0.543
	c0.447-0.362,0.673-0.846,0.673-1.45c0-0.541-0.188-0.994-0.554-1.363c-0.369-0.367-0.979-0.711-1.836-1.025
	c-2.33-0.869-3.496-2.141-3.496-3.812c0-1.092,0.412-1.985,1.233-2.685C39.647,0.349,40.737,0,42.093,0
	c1.211,0,2.22,0.211,3.021,0.632L44.579,2.37c-0.754-0.408-1.604-0.612-2.557-0.612c-0.752,0-1.343,0.185-1.765,0.553
	c-0.354,0.329-0.535,0.73-0.535,1.206c0,0.525,0.205,0.961,0.613,1.303c0.354,0.315,1,0.658,1.935,1.026
	c1.146,0.462,1.987,1,2.526,1.618C45.339,8.082,45.61,8.853,45.61,9.772z"/>
<path fill="#FFFFFF" d="M52.677,5.509h-2.351v4.659c0,1.185,0.414,1.776,1.244,1.776c0.381,0,0.697-0.032,0.947-0.1l0.059,1.619
	c-0.42,0.157-0.973,0.236-1.657,0.236c-0.843,0-1.5-0.258-1.976-0.771c-0.474-0.514-0.711-1.375-0.711-2.587V5.505h-1.399v-1.6
	h1.399V2.148l2.094-0.632v2.389h2.351V5.509z"/>
<path fill="#FFFFFF" d="M63.259,8.628c0,1.475-0.422,2.686-1.265,3.633c-0.881,0.975-2.053,1.461-3.514,1.461
	c-1.41,0-2.531-0.467-3.367-1.4c-0.836-0.935-1.254-2.112-1.254-3.533c0-1.487,0.433-2.705,1.293-3.652
	c0.862-0.947,2.024-1.422,3.485-1.422c1.408,0,2.539,0.469,3.396,1.402C62.852,6.022,63.259,7.192,63.259,8.628z M61.048,8.677
	c0-0.879-0.189-1.633-0.57-2.264c-0.447-0.762-1.088-1.143-1.916-1.143c-0.854,0-1.51,0.381-1.955,1.143
	c-0.383,0.631-0.572,1.398-0.572,2.304c0,0.88,0.19,1.636,0.572,2.265c0.461,0.763,1.104,1.144,1.938,1.144
	c0.814,0,1.453-0.39,1.916-1.162C60.852,10.317,61.048,9.558,61.048,8.677z"/>
<path fill="#FFFFFF" d="M70.192,5.784c-0.211-0.039-0.437-0.059-0.672-0.059c-0.75,0-1.33,0.281-1.738,0.85
	c-0.354,0.5-0.532,1.132-0.532,1.895v5.035h-2.132V6.931c0-1.104-0.021-2.113-0.062-3.021h1.856l0.078,1.836h0.06
	c0.226-0.631,0.58-1.14,1.065-1.521c0.476-0.344,0.988-0.515,1.541-0.515c0.197,0,0.375,0.015,0.533,0.039L70.192,5.784
	L70.192,5.784z"/>
<path fill="#FFFFFF" d="M79.727,8.253c0,0.382-0.025,0.704-0.078,0.967h-6.396c0.023,0.948,0.334,1.674,0.928,2.174
	c0.539,0.446,1.236,0.67,2.092,0.67c0.947,0,1.811-0.149,2.588-0.453l0.334,1.479c-0.908,0.396-1.98,0.593-3.217,0.593
	c-1.488,0-2.656-0.438-3.506-1.312c-0.848-0.875-1.273-2.052-1.273-3.524c0-1.445,0.395-2.65,1.186-3.611
	c0.828-1.026,1.947-1.539,3.355-1.539c1.383,0,2.43,0.513,3.141,1.539C79.444,6.048,79.727,7.056,79.727,8.253z M77.694,7.7
	c0.015-0.633-0.125-1.178-0.414-1.639c-0.369-0.595-0.937-0.891-1.698-0.891c-0.697,0-1.265,0.289-1.697,0.869
	c-0.354,0.461-0.565,1.016-0.631,1.658L77.694,7.7L77.694,7.7z"/>
</svg>
