<?xml version="1.0" encoding="utf-8"?>
<!-- Generator: Adobe Illustrator 18.0.0, SVG Export Plug-In . SVG Version: 6.00 Build 0)  -->
<!DOCTYPE svg PUBLIC "-//W3C//DTD SVG 1.1//EN" "http://www.w3.org/Graphics/SVG/1.1/DTD/svg11.dtd">
<svg version="1.1" id="apple" xmlns="http://www.w3.org/2000/svg" xmlns:xlink="http://www.w3.org/1999/xlink" x="0px" y="0px"
	 viewBox="0 0 142.5 108" enable-background="new 0 0 142.5 108" xml:space="preserve">
<g>
	<g>
		<path fill="#ffffff" d="M92.8,56.3c-0.1-10.9,8.9-16.2,9.3-16.4c-5.1-7.4-13-8.5-15.8-8.5c-6.6-0.7-13.1,4-16.5,4
			c-3.5,0-8.7-3.9-14.3-3.8c-7.2,0.1-14,4.3-17.7,10.8c-7.7,13.3-1.9,32.7,5.4,43.4c3.7,5.2,8,11.1,13.6,10.9
			c5.5-0.2,7.5-3.5,14.2-3.5c6.6,0,8.5,3.5,14.2,3.4c5.9-0.1,9.6-5.3,13.1-10.6c4.2-6,5.9-11.9,6-12.2
			C104.2,73.7,92.9,69.4,92.8,56.3z"/>
		<path fill="#ffffff" d="M82,24.3c3-3.7,5-8.7,4.4-13.8c-4.3,0.2-9.6,3-12.7,6.6c-2.7,3.2-5.2,8.4-4.5,13.3
			C74,30.7,78.9,27.9,82,24.3z"/>
	</g>
</g>
</svg>
