<?xml version="1.0" encoding="utf-8"?>
<!-- Generator: Adobe Illustrator 18.0.0, SVG Export Plug-In . SVG Version: 6.00 Build 0)  -->
<!DOCTYPE svg PUBLIC "-//W3C//DTD SVG 1.1//EN" "http://www.w3.org/Graphics/SVG/1.1/DTD/svg11.dtd">
<svg version="1.1" id="now" xmlns="http://www.w3.org/2000/svg" xmlns:xlink="http://www.w3.org/1999/xlink" x="0px" y="0px"
	 viewBox="316 245 153 105" enable-background="new 316 245 153 105" xml:space="preserve">
<g opacity="0.8">
	<path fill="#FFFFFF" d="M361.6,313.3c-0.2-0.3-0.2-26.5,0-26.4l8.6-2.9v42.7l-9.3,2.9c0,0-7.4-17.7-9.5-23.6v26.1l-8.8,2.9
		l0.1-43.1l9.5-2.7C357.4,301.9,358.4,304.7,361.6,313.3z"/>
	<path fill="#FFFFFF" d="M385.4,279.5c2-0.5,6.5-1.5,9.5-0.3c3.2,1.3,4.3,3.7,4.9,5.8c0.7,2.7,0.8,6.4,0.9,9.2l0.5,14.4
		c0.3,8.3-2.3,12-11.1,14.4c-5.2,1.5-12.8,1.8-14.8-5.7c-0.4-1.5-0.6-3.8-0.7-5.2l0.1-16.5C374.3,288.5,374.4,282.5,385.4,279.5z
		 M384.5,313.8c0.4,1.5,2.1,2.1,4.1,1.6c2.7-0.7,2.8-2.7,2.7-6.6c0.1-2.3-0.4-13.5-0.4-16c-0.1-3.3-0.1-3.7-0.2-4.3
		c-0.4-1.5-1.6-2.3-3.4-1.8c-2.5,0.7-3.2,2.1-3.2,3.3C384.1,292.7,384.1,312.4,384.5,313.8z"/>
	<path fill="#FFFFFF" d="M430.4,268.1l6.3,31.2c-0.1-2.3-0.2-6.3,0-10.7l1.2-22.5l9.7-2.6l-3.9,44l-12,3.3c-2-8.4-2.3-10.2-3.5-15.4
		c-1.3-5.5-1.8-7.9-3-14.9c-0.3,6.6-0.4,7.8-1.7,17.6l-2.1,15.4l-12.3,3.3l-7.1-41l9.4-2.6l1.7,14.3c0.2,1.1,0.8,6.5,1,7.7
		c0.7,5.5,0.8,7.9,0.9,10.6c0.2-3.2,0.4-5.2,0.5-6l3.4-28.5L430.4,268.1z"/>
</g>
</svg>
