<?xml version="1.0" encoding="utf-8"?>
<!-- Generator: Adobe Illustrator 18.0.0, SVG Export Plug-In . SVG Version: 6.00 Build 0)  -->
<!DOCTYPE svg PUBLIC "-//W3C//DTD SVG 1.1//EN" "http://www.w3.org/Graphics/SVG/1.1/DTD/svg11.dtd">
<svg version="1.1" id="now" xmlns="http://www.w3.org/2000/svg" xmlns:xlink="http://www.w3.org/1999/xlink" x="0px" y="0px"
	 viewBox="0 0 792 612" enable-background="new 0 0 792 612" xml:space="preserve">
<g>
	<path fill="#FFFFFF" d="M176.2,411c-1.2-1.8-1.2-175.1-0.3-174.2l56.8-18.9v281.5l-61.4,18.9c0,0-48.9-116.9-62.4-155.5l-0.3,172.4
		l-58,19.3l0.6-284.5l62.7-18C148.1,335.3,154.6,353.9,176.2,411z"/>
	<path fill="#FFFFFF" d="M333.1,187.9c13.5-3.5,42.6-9.6,62.7-2c21,8.5,28.6,24.5,32.1,38.1c4.5,17.6,5.1,42.1,6,60.7l3,94.7
		c2,54.7-15.5,79.2-73.2,94.7c-34.6,9.6-84.5,11.7-97.6-37.9c-2.5-10-4-25.1-4.5-34.1l0.4-109C259.9,247.1,260.5,207.5,333.1,187.9z
		 M327.3,414.1c2.5,10,13.9,14,26.9,10.4c17.6-4.5,18.6-18,18-43.7c0.5-15.5-2.5-88.8-2.5-105.8c-0.5-22.1-0.5-24.5-1.5-28.1
		c-2.5-10-10.6-15.1-22.6-12c-16.5,4.5-21,14.1-21,21.7C324.2,274.7,324.8,404.6,327.3,414.1z"/>
	<path fill="#FFFFFF" d="M630.1,112.2l41.6,205.6c-0.5-15.5-1.5-41.6,0-70.7l8-148.4l63.7-17.1L717.9,372l-79.2,21.6
		c-13.1-55.7-15.1-67.2-23.1-101.3c-8.5-36.1-12-52.2-20-98.3c-2,43.7-2.5,51.2-11,116.3l-14.1,101.3l-81.2,22.1l-47.1-270.3
		l62.2-17.1l11.5,94.3c1,7.5,5.5,42.6,6.5,50.6c4.5,36.6,5.1,52.2,6,69.8c1-21,2.5-34.1,3-39.6l22.6-188L630.1,112.2z"/>
</g>
</svg>
