<?xml version="1.0" encoding="utf-8"?>
<!-- Generator: Adobe Illustrator 19.1.0, SVG Export Plug-In . SVG Version: 6.00 Build 0)  -->
<svg version="1.1" id="Layer_1" xmlns="http://www.w3.org/2000/svg" xmlns:xlink="http://www.w3.org/1999/xlink" x="0px" y="0px"
	 viewBox="0 0 52 40" enable-background="new 0 0 52 40" xml:space="preserve">
<g>
	<g>
		<path fill="#FFFFFF" d="M8.5,27.7c-0.3-3-0.3-3.6-0.5-5.9c-0.1-2.6-0.1-2.9-0.3-5.2l3.8-1l0.6,18.1l-3.9,1.1L6.3,30
			c-1-2.7-1.2-3-2.1-5.5L5,35.6l-3.8,1L0.5,18.5l4-1.1C6.7,22.8,7.2,24,8.5,27.7z"/>
		<path fill="#FFFFFF" d="M44.1,6.5l2.7,13.3c0-1-0.1-2.7,0-4.6l0.5-9.6l4.1-1.1l-1.7,18.8l-5.1,1.4c-0.8-3.6-1-4.4-1.5-6.5
			c-0.5-2.3-0.8-3.4-1.3-6.4c-0.1,2.8-0.2,3.3-0.7,7.5l-0.9,6.6l-5.3,1.4l-3-17.5l4-1.1l0.8,6.1c0.1,0.5,0.3,2.8,0.4,3.3
			c0.3,2.4,0.3,3.4,0.4,4.5c0.1-1.4,0.2-2.2,0.2-2.6l1.5-12.2L44.1,6.5z"/>
	</g>
	<path fill="#FFFFFF" d="M30.8,18.3c-0.8,0-1.7-0.3-2.4-0.1c0.8-0.4,1.8-1.2,2.7-0.5C31.2,17.9,31.1,18.2,30.8,18.3z"/>
	<path fill="#7DE614" d="M29.5,21c0.9,0.2,1.2,1.3,2.2,1.3c0.6-0.5-0.2-0.9-0.5-1.2C30.6,21,29.9,20.8,29.5,21z"/>
	<path fill="#FF3296" d="M31.1,19.4c-0.5-0.6-1.4-0.1-2,0.1C29.6,19.4,30.9,20.5,31.1,19.4z"/>
	<path fill="#FFFFFF" d="M29,14.9c-0.3-0.4-0.7,0-1.1,0c-0.5,0.4-1.2,1-1.2,1.6C27.3,15.7,29.1,16.1,29,14.9z"/>
	<path fill="#FFFFFF" d="M28.9,24.4c0.4,0.3,0.6,1.4,1.3,1.5c0.2-0.1,0.2-0.2,0.2-0.5C30.3,24.8,29.5,24.4,28.9,24.4z"/>
	<path fill="#FF3296" d="M29,22.6c-0.6-0.7-1.5-0.7-2.4-0.6c0.8,0.3,1.3,1.1,2.1,1.3C29,23.1,29.2,22.8,29,22.6z"/>
	<path fill="#3FA9F5" d="M25.9,18.6c0.4-0.4,1.9-0.1,1.8-1c-0.4-0.2-0.6-0.1-1,0.1C26.4,17.9,25.7,18.3,25.9,18.6z"/>
	<path fill="#FFFFFF" d="M28.1,20.3c-0.6-0.4-1.5-0.4-2.1,0.1c0.7-0.1,1.3,0.4,1.9,0.5C28.2,20.8,28.3,20.5,28.1,20.3z"/>
	<path fill="#7DE614" d="M26,13.2c-0.2-0.2-0.4-0.2-0.7-0.1c-0.7,0.6-0.7,1.4-0.6,2.2C25.1,14.7,26,14.1,26,13.2z"/>
	<path fill="#7DE614" d="M28.8,27.9c0.6-1-0.5-1.8-1.2-2.3C28.3,26.3,27.6,27.9,28.8,27.9z"/>
	<path fill="#FFFFFF" d="M25.9,16.4c0-0.4-0.5-0.1-0.7-0.1c-0.3,0.3-0.9,1.1-0.6,1.4C25,17.4,25.8,17.1,25.9,16.4z"/>
	<path fill="#3FA9F5" d="M25.3,23c0.5,0.4,0.7,1.1,1.1,1.6c0.3,0.1,0.7-0.1,0.6-0.5C26.7,23.5,26,23,25.3,23z"/>
	<path fill="#9632FF" d="M25,19.1c-0.7,0.1-1.3,0.6-1.5,1.3c0.4-0.5,1.2-0.5,1.7-0.9C25.3,19.3,25.1,19.2,25,19.1z"/>
	<path fill="#FFFFFF" d="M23.9,21l1.5,1c0.2-0.1,0.3-0.4,0.2-0.6C25.1,21.1,24.5,20.8,23.9,21z"/>
	<path fill="#FFFFFF" d="M23.2,12.8c-0.4-0.2-0.8-0.1-0.9,0.4c0,0.8,0.1,1.5,0.6,2.1C22.7,14.6,23.4,13.6,23.2,12.8z"/>
	<path fill="#FFFFFF" d="M26.4,26.4c-0.2-0.4-0.7-1-0.9-1l0.3,1.3c0,0.3,0.2,0.6,0.6,0.3C26.7,26.9,26.4,26.6,26.4,26.4z"/>
	<path fill="#FF3296" d="M23.7,16.1L23.2,16c-0.7,0.5-0.1,1.5-0.1,2C23.3,17.3,23.7,16.7,23.7,16.1z"/>
	<path fill="#FF3296" d="M26.3,29.3c0.5-0.3,0.1-1.2-0.5-1.5C26,28.3,25.9,28.9,26.3,29.3z"/>
	<path fill="#FFFFFF" d="M25,23.5c-0.3-0.2-0.4-0.7-0.8-0.7c0.6,0.4,0,1.2,0.7,1.6C25.4,24.2,25,23.8,25,23.5z"/>
	<path fill="#FFFFFF" d="M20.8,20.1l0.1,0.5l1.8-0.2C22.1,20.1,21.5,19.7,20.8,20.1z"/>
	<path fill="#3FA9F5" d="M23.1,24.5l0.4-0.1c0.2-0.6-0.5-1-0.2-1.6C22.9,23.3,22.8,24,23.1,24.5z"/>
	<path fill="#FFFFFF" d="M24.1,29.6l0.5,0c0.2-0.6-0.6-1-0.2-1.6l-0.2,0.2C24,28.7,23.9,29.1,24.1,29.6z"/>
	<path fill="#FFFFFF" d="M20.7,16.5c-0.5,0.7,0.8,1.1,1.2,1.7c0-0.4-0.2-1-0.3-1.2C21.3,16.7,21,16.4,20.7,16.5z"/>
	<path fill="#7DE614" d="M22.6,21.1l-0.6,0.2c-0.3,0.3-0.9,0.7-0.7,1.2C22.3,23,22.1,21.6,22.6,21.1z"/>
	<path fill="#3FA9F5" d="M20.5,13.9c-0.2-0.2-0.4-0.7-0.8-0.5c-0.6,1,0.9,1.4,1.2,2.3C20.9,15.1,20.6,14.5,20.5,13.9z"/>
	<path fill="#FF3296" d="M23.4,25.7c-0.5,0.5-0.5,1.4-0.2,2l0.5-0.1C23.7,26.9,23.3,26.3,23.4,25.7z"/>
	<path fill="#FFFFFF" d="M21.5,24.8c0,0.3-0.2,0.7,0.2,0.9c0.7-0.3,0.2-1.4,0.6-2.1C22,23.9,21.7,24.3,21.5,24.8z"/>
	<path fill="#FF3296" d="M18.8,18c0.1,0.8,1.3,0.5,1.9,0.8l-0.2-0.4C20,18,19.3,17.5,18.8,18z"/>
	<path fill="#7DE614" d="M19.3,16.8c-0.4-0.8-1-2-2.1-1.7C16.9,16.3,18.8,16,19.3,16.8z"/>
	<path fill="#FFFFFF" d="M19.4,21.8c-0.5,0.2-1.2,0.7-0.7,1.2c0.9-0.1,0.9-1.2,1.7-1.4C20,21.6,19.8,21.7,19.4,21.8z"/>
	<path fill="#3FA9F5" d="M21.3,27.3c-0.2,0.7-0.5,1.7,0.1,2.3c0.1-0.1,0.3,0,0.4,0c0.5-0.9-0.7-1.8-0.1-2.7L21.3,27.3z"/>
	<path fill="#7DE614" d="M17.6,19.8c0.1,1.3,1.6-0.2,2.2,0.1C19.1,19.4,18.4,19.6,17.6,19.8z"/>
	<path fill="#9632FF" d="M20.7,23.4l-0.4,0.1c-0.7,0.5-1.6,1-1.4,2C20.3,25.8,19.7,23.9,20.7,23.4z"/>
	<path fill="#FFFFFF" d="M17.9,18.6l-0.2-0.3C17,18,16,17.5,15.2,18.2C15.6,19.4,17.2,18.1,17.9,18.6z"/>
	<path fill="#FFFFFF" d="M19.1,28.5c0.9-0.2,0.4-1.3,0.7-1.9l-0.7,0.7C19.1,27.6,18.7,28.2,19.1,28.5z"/>
	<path fill="#FFFFFF" d="M17.3,20.9l-0.4-0.1c-0.8,0.2-2,0.1-2.3,1C15.5,22.7,16.2,20.9,17.3,20.9z"/>
	<path fill="#3FA9F5" d="M15.5,23.3c0.8,0.6,1.3-0.8,2-1l-0.8,0C16.2,22.7,15.4,22.7,15.5,23.3z"/>
	<path fill="#FF3296" d="M16.3,26.1c0.9-0.4,0.9-1.6,1.5-2.2C17,24,16.5,24.6,16,25.2C16,25.6,16,25.9,16.3,26.1z"/>
</g>
</svg>
