<?xml version="1.0" standalone="no"?>
<!DOCTYPE svg PUBLIC "-//W3C//DTD SVG 1.1//EN" "http://www.w3.org/Graphics/SVG/1.1/DTD/svg11.dtd" >
<svg xmlns="http://www.w3.org/2000/svg">
<metadata>Generated by IcoMoon</metadata>
<defs>
<font id="younow-admin" horiz-adv-x="1024">
<font-face units-per-em="1024" ascent="960" descent="-64" />
<missing-glyph horiz-adv-x="1024" />
<glyph unicode="&#x20;" horiz-adv-x="512" d="" />
<glyph unicode="&#xe900;" glyph-name="younow-a-logo" d="M195.584 323.072c-7.168 67.584-7.168 79.872-10.24 132.096-3.072 58.368-3.072 63.488-6.144 115.712l83.968 22.528 13.312-402.432-87.040-23.552-41.984 105.472c-23.552 59.392-27.648 65.536-46.080 120.832l16.384-245.76-84.992-22.528-15.36 401.408 88.064 23.552c49.152-119.808 58.368-145.408 90.112-227.328zM419.84 642.56c19.456 5.12 60.416 13.312 90.112 3.072 30.72-12.288 40.96-35.84 46.080-54.272 7.168-25.6 7.168-60.416 8.192-87.040l4.096-136.192c3.072-78.848-22.528-113.664-104.448-136.192-49.152-13.312-116.736-16.384-135.168 54.272-4.096 14.336-5.12 35.84-6.144 49.152l-5.12 156.672c-2.048 65.536-2.048 122.88 102.4 150.528zM415.744 316.928c4.096-14.336 15.36-19.456 33.792-14.336 24.576 7.168 26.624 26.624 25.6 62.464 0 21.504-4.096 126.976-4.096 151.552-1.024 31.744-1.024 34.816-2.048 39.936-4.096 14.336-15.36 21.504-32.768 17.408-23.552-6.144-25.6-20.48-25.6-31.744 1.024-24.576 2.048-210.944 5.12-225.28zM845.824 751.104l59.392-294.912c-1.024 22.528-2.048 59.392 0 101.376l11.264 212.992 91.136 24.576-36.864-415.744-113.664-30.72c-18.432 79.872-21.504 96.256-32.768 145.408-12.288 52.224-17.408 74.752-28.672 141.312-3.072-62.464-4.096-73.728-16.384-166.912l-19.456-146.432-116.736-31.744-67.584 388.096 89.088 24.576 16.384-135.168c1.024-10.24 8.192-61.44 9.216-72.704 6.144-52.224 7.168-74.752 8.192-100.352 2.048 30.72 3.072 49.152 4.096 57.344l32.768 270.336 110.592 28.672z" />
<glyph unicode="&#xe901;" glyph-name="younow-a-content" d="M512 960c-282.624 0-512-229.376-512-512s229.376-512 512-512 512 229.376 512 512-229.376 512-512 512zM319.488 325.12c0 0-161.792 10.24-161.792 138.24 0 137.216 161.792 139.264 161.792 139.264v-277.504zM841.728 198.144c0 0-4.096-49.152-59.392-20.48-40.96 22.528-208.896 141.312-208.896 141.312h-74.752l-1.024-137.216c0 0-4.096-32.768-41.984-32.768-26.624 0-56.32 8.192-56.32 34.816v137.216l-35.84 1.024v277.504h227.328l197.632 120.832c0 0 53.248 17.408 53.248-29.696s0-492.544 0-492.544z" />
<glyph unicode="&#xe902;" glyph-name="younow-a-dashboard" d="M512 958.976c-282.624 0-512-229.376-512-512s229.376-512 512-512c282.624 0 512 229.376 512 512s-229.376 512-512 512zM207.872 446.976c0 106.496 54.272 199.68 137.216 253.952 14.336-65.536 67.584-259.072 82.944-286.72 17.408-33.792 59.392-46.080 93.184-28.672s46.080 59.392 28.672 93.184c-14.336 27.648-145.408 182.272-191.488 230.4 45.056 26.624 97.28 41.984 153.6 41.984 166.912 0 304.128-136.192 304.128-304.128 0-25.6-3.072-51.2-9.216-74.752h-136.192c-18.432-52.224-81.92-90.112-158.72-90.112s-140.288 38.912-158.72 90.112h-135.168c-6.144 23.552-10.24 49.152-10.24 74.752zM842.752 371.2c5.12 24.576 8.192 49.152 8.192 74.752 0 188.416-151.552 339.968-338.944 339.968s-338.944-151.552-338.944-338.944c0-25.6 3.072-51.2 8.192-74.752h-44.032c-5.12 24.576-7.168 49.152-7.168 74.752 0 210.944 171.008 381.952 381.952 381.952s381.952-171.008 381.952-381.952c0-25.6-3.072-51.2-7.168-74.752h-44.032z" />
<glyph unicode="&#xe903;" glyph-name="younow-a-moderation" d="M512 960c-282.624 0-512-229.376-512-512s229.376-512 512-512 512 229.376 512 512-229.376 512-512 512zM863.232 629.248c-347.136-504.832-228.352 9.216-522.24-236.544l67.584-262.144h-74.752l-137.216 536.576 68.608 24.576c328.704 240.64 157.696-216.064 581.632-47.104 14.336 5.12 24.576-3.072 16.384-15.36z" />
<glyph unicode="&#xe904;" glyph-name="younow-a-partner-management" d="M512 960c-282.624 0-512-229.376-512-512s229.376-512 512-512 512 229.376 512 512-229.376 512-512 512zM208.896 258.56c-9.216 0-18.432 4.096-25.6 10.24l-1.024 1.024c-14.336 14.336-14.336 36.864-1.024 51.2l60.416 61.44c7.168 7.168 16.384 11.264 25.6 11.264s18.432-4.096 25.6-10.24l1.024-1.024c14.336-14.336 14.336-36.864 1.024-51.2l-60.416-61.44c-6.144-7.168-15.36-11.264-25.6-11.264zM283.648 204.288c-9.216 0-18.432 4.096-25.6 10.24l-1.024 1.024c-14.336 14.336-14.336 36.864-1.024 51.2l60.416 61.44c7.168 7.168 16.384 11.264 25.6 11.264s18.432-4.096 25.6-10.24l1.024-1.024c14.336-14.336 14.336-36.864 1.024-51.2l-60.416-61.44c-7.168-7.168-16.384-11.264-25.6-11.264zM362.496 156.16c-9.216 0-18.432 4.096-25.6 10.24l-1.024 1.024c-14.336 14.336-14.336 36.864-1.024 51.2l60.416 61.44c7.168 7.168 16.384 11.264 25.6 11.264s18.432-4.096 25.6-10.24l1.024-1.024c14.336-14.336 14.336-36.864 1.024-51.2l-60.416-61.44c-7.168-7.168-16.384-11.264-25.6-11.264zM436.224 103.936c-9.216 0-18.432 4.096-25.6 10.24h-1.024c-14.336 14.336-14.336 36.864-1.024 51.2l60.416 61.44c7.168 7.168 16.384 11.264 25.6 11.264s18.432-4.096 25.6-10.24l1.024-1.024c14.336-14.336 14.336-36.864 1.024-51.2l-60.416-61.44c-7.168-6.144-16.384-10.24-25.6-10.24zM774.144 253.44c-8.192-9.216-19.456-14.336-35.84-14.336-6.144 0-12.288 1.024-19.456 2.048l-4.096 1.024v-4.096c0-2.048-5.12-47.104-53.248-47.104-8.192 0-16.384 1.024-25.6 4.096l-5.12 1.024v-5.12c0-2.048-2.048-46.080-49.152-46.080-5.12 0-10.24 1.024-16.384 2.048l-3.072 1.024-1.024-3.072c0 0-15.36-43.008-49.152-43.008-8.192 0-17.408 3.072-27.648 8.192l69.632 70.656v1.024c0 1.024 3.072 37.888-17.408 59.392-12.288 14.336-31.744 19.456-56.32 15.36-2.048 13.312-13.312 52.224-60.416 52.224-6.144 0-13.312-1.024-20.48-2.048-2.048 14.336-12.288 55.296-63.488 55.296-3.072 0-7.168 0-10.24-1.024-3.072 12.288-14.336 52.224-58.368 52.224-5.12 0-11.264-1.024-17.408-2.048h-1.024l-70.656-68.608c-12.288 13.312-61.44 66.56-98.304 75.776 0 3.072 1.024 14.336 22.528 54.272l67.584 153.6c1.024 1.024 7.168 8.192 18.432 8.192 4.096 0 9.216-1.024 14.336-3.072 5.12-3.072 35.84-21.504 48.128-21.504 0 0 0 0 0 0 3.072-1.024 25.6-5.12 46.080-5.12 11.264 0 20.48 1.024 26.624 4.096 4.096 1.024 84.992 27.648 139.264 27.648 19.456 0 32.768-3.072 39.936-10.24l-141.312-132.096v-1.024c0-1.024-8.192-26.624 1.024-43.008s29.696-36.864 43.008-40.96c6.144-2.048 18.432-5.12 33.792-5.12 12.288 0 23.552 2.048 32.768 4.096v0c2.048 1.024 51.2 23.552 114.688 83.968 22.528-17.408 184.32-139.264 196.608-189.44 0-1.024 5.12-30.72-9.216-49.152zM924.672 407.040v0l-93.184-77.824c0 0-3.072-3.072-9.216-3.072-5.12 0-11.264 2.048-17.408 7.168-6.144 7.168-121.856 141.312-211.968 186.368h-4.096l-2.048-2.048c-27.648-24.576-102.4-87.040-123.904-87.040h-2.048c0 0-7.168-3.072-20.48-3.072-8.192 0-17.408 1.024-26.624 3.072-5.12 3.072-39.936 27.648-26.624 57.344 8.192 6.144 82.944 63.488 163.84 149.504 0 0 7.168 7.168 25.6 7.168s41.984-7.168 68.608-19.456v0c2.048-1.024 46.080-15.36 80.896-19.456 1.024 0 5.12-1.024 13.312-1.024 20.48 0 58.368 4.096 94.208 31.744 0 0 1.024 0 2.048 0 6.144 0 18.432-3.072 22.528-22.528v0l86.016-176.128c0 0 3.072-7.168 0-14.336s-9.216-12.288-19.456-16.384z" />
<glyph unicode="&#xe905;" glyph-name="younow-a-activity" d="M512 960c-282.624 0-512-229.376-512-512s229.376-512 512-512 512 229.376 512 512c0 282.624-229.376 512-512 512zM303.104 185.856h-107.52v117.76l19.456-18.432 88.064 83.968v-183.296zM463.872 185.856h-107.52v235.52l77.824 74.752 28.672-7.168v-303.104zM624.64 182.784h-107.52v292.864l107.52-25.6v-267.264zM785.408 185.856h-106.496v279.552l53.248 83.968 54.272-30.72v-332.8zM782.336 580.096l-68.608 38.912-75.776-119.808-219.136 52.224-204.8-193.536-37.888 35.84 225.28 214.016 209.92-50.176 55.296 88.064-68.608 38.912 187.392 98.304-3.072-202.752z" />
<glyph unicode="&#xe906;" glyph-name="younow-a-user-management" d="M512 960c-282.624 0-512-229.376-512-512s229.376-512 512-512 512 229.376 512 512-229.376 512-512 512zM711.68 564.736c8.192 10.24 20.48 15.36 32.768 18.432 8.192 2.048 16.384 2.048 19.456 1.024 9.216-3.072 19.456-6.144 26.624-14.336 2.048-2.048 3.072-1.024 6.144-1.024 14.336 1.024 24.576-5.12 31.744-17.408 9.216-16.384 11.264-33.792 10.24-53.248 0-7.168-2.048-14.336-3.072-21.504 0-2.048 0-4.096 1.024-6.144 6.144-18.432 2.048-33.792-11.264-48.128-3.072-3.072-5.12-6.144-6.144-11.264-3.072-9.216-7.168-17.408-12.288-24.576-2.048-2.048-3.072-4.096-4.096-7.168-9.216-19.456-37.888-28.672-57.344-19.456-7.168 3.072-12.288 9.216-16.384 16.384-8.192 12.288-16.384 24.576-19.456 38.912-1.024 2.048-2.048 4.096-3.072 5.12-13.312 11.264-19.456 32.768-12.288 49.152 1.024 3.072 0 5.12-1.024 8.192-8.192 33.792-3.072 62.464 18.432 87.040zM436.224 649.728c12.288 15.36 29.696 22.528 48.128 27.648 12.288 2.048 24.576 2.048 30.72 0 14.336-5.12 29.696-8.192 39.936-21.504 2.048-3.072 5.12-1.024 8.192-1.024 21.504 1.024 36.864-7.168 47.104-25.6 13.312-23.552 16.384-50.176 15.36-77.824-1.024-11.264-2.048-21.504-4.096-32.768-1.024-3.072-1.024-6.144 1.024-8.192 8.192-26.624 3.072-50.176-16.384-70.656-4.096-4.096-7.168-9.216-9.216-15.36-4.096-13.312-11.264-24.576-18.432-36.864-2.048-3.072-4.096-7.168-6.144-10.24-14.336-28.672-55.296-43.008-84.992-28.672-11.264 5.12-18.432 14.336-24.576 23.552-12.288 18.432-23.552 36.864-28.672 58.368-1.024 3.072-3.072 6.144-5.12 8.192-20.48 16.384-28.672 48.128-18.432 73.728 2.048 4.096 0 8.192-1.024 11.264-12.288 46.080-4.096 88.064 26.624 125.952zM183.296 499.2c-1.024 18.432 1.024 36.864 10.24 53.248 7.168 12.288 17.408 17.408 31.744 17.408 2.048-1.024 4.096-1.024 6.144 1.024 7.168 8.192 17.408 11.264 26.624 14.336 4.096 1.024 12.288 1.024 19.456-1.024 12.288-3.072 24.576-8.192 32.768-18.432 21.504-24.576 26.624-54.272 19.456-86.016-1.024-3.072-2.048-5.12-1.024-8.192 7.168-17.408 1.024-37.888-12.288-49.152-2.048-1.024-3.072-3.072-3.072-5.12-3.072-14.336-12.288-26.624-19.456-38.912-4.096-6.144-9.216-12.288-16.384-16.384-19.456-9.216-48.128-1.024-57.344 19.456-1.024 2.048-2.048 4.096-4.096 7.168-5.12 8.192-9.216 16.384-12.288 24.576-1.024 4.096-3.072 7.168-6.144 11.264-13.312 14.336-17.408 29.696-11.264 48.128 1.024 2.048 1.024 4.096 1.024 6.144-2.048 5.12-4.096 13.312-4.096 20.48zM123.904 263.68c-6.144 0-8.192 6.144-8.192 11.264-2.048 18.432 1.024 34.816 16.384 48.128 7.168 6.144 14.336 11.264 22.528 16.384 17.408 9.216 36.864 16.384 55.296 19.456 4.096 1.024 7.168 1.024 11.264-2.048 17.408-13.312 56.32-15.36 69.632 0 3.072 3.072 7.168 5.12 12.288 4.096 3.072-1.024 45.056-8.192 65.536-22.528 0 0-62.464-13.312-82.944-74.752-91.136 0-70.656 0-161.792 0zM726.016 218.624c-1.024-8.192-4.096-17.408-13.312-16.384-134.144 0-258.048 0-392.192 0-11.264 0-16.384 7.168-19.456 14.336-5.12 13.312-3.072 49.152 14.336 70.656 19.456 21.504 28.672 24.576 43.008 31.744 28.672 16.384 84.992 25.6 90.112 27.648 7.168 2.048 13.312-1.024 17.408-6.144 20.48-22.528 77.824-19.456 103.424 0 5.12 4.096 9.216 4.096 16.384 3.072 28.672-6.144 56.32-15.36 82.944-29.696 12.288-7.168 23.552-14.336 33.792-23.552 21.504-19.456 27.648-44.032 23.552-71.68zM898.048 263.68c-91.136 0-70.656 0-161.792 0-20.48 60.416-82.944 74.752-82.944 74.752 19.456 13.312 62.464 21.504 65.536 22.528 4.096 1.024 9.216-1.024 12.288-4.096 13.312-15.36 53.248-13.312 69.632 0 3.072 3.072 6.144 3.072 11.264 2.048 19.456-4.096 37.888-10.24 55.296-19.456 8.192-4.096 16.384-10.24 22.528-16.384 14.336-13.312 18.432-29.696 16.384-48.128 0-5.12-3.072-11.264-8.192-11.264z" />
<glyph unicode="&#xe907;" glyph-name="younow-a-caret-down" d="M63.437 676.393h900.833l-446.577-458.189z" />
<glyph unicode="&#xe908;" glyph-name="younow-a-caret-right" d="M733.86-3.123v900.833l-458.189-446.577z" />
<glyph unicode="&#xe909;" glyph-name="younow-a-caret-left" d="M275.671-3.123v900.833l458.189-446.577z" />
<glyph unicode="&#xe90a;" glyph-name="younow-a-caret-up" d="M63.437 218.204h900.833l-446.577 458.189z" />
<glyph unicode="&#xe90b;" glyph-name="younow-a-back" d="M704.655-33.669c-15.094-15.073-36.137-12.493-49.623 0.625 0 0-298.772 329.103-445.921 486.881 150.385 154.962 428.902 452.28 446.239 470.139 9.769 10.363 28.918 27.31 51.036 12.227 0 0 42.527-46.459 46.152-50.022 23.081-22.753 1.085-44.605-0.901-46.715l-361.144-389.12 363.633-388.198c24.392-20.756 14.725-43.233-2.806-56.617l-46.664-39.199z" />
<glyph unicode="&#xe90c;" glyph-name="younow-a-next" d="M343.491-33.669c15.094-15.073 36.137-12.493 49.623 0.625 0 0 298.772 329.103 445.921 486.881-150.385 154.962-428.902 452.28-446.239 470.139-9.769 10.363-28.918 27.31-51.036 12.227 0 0-42.527-46.459-46.152-50.022-23.081-22.753-1.085-44.605 0.901-46.715l361.144-389.12-363.622-388.188c-24.392-20.756-14.725-43.233 2.806-56.617l46.653-39.209z" />
<glyph unicode="&#xe90d;" glyph-name="younow-a-person" d="M521.912 519.67c117.637 0 207.596 89.201 207.596 205.855s-89.958 205.865-207.596 205.865-207.596-89.201-207.596-205.855 89.958-205.865 207.596-205.865zM516.557 382.423c-159.16 0-481.28-82.34-481.28-240.169v-170.414h962.56v170.414c0 157.829-322.12 240.169-481.28 240.169z" />
<glyph unicode="&#xe90e;" glyph-name="younow-a-shift-tracker" d="M795.494 870.216c-115.63 3.246-209.603-85.494-212.869-198.932-1.638-54.702 18.391-105.175 56.381-145.285 37.591-39.711 89.068-62.628 144.23-62.628h6.134c112.364 0 203.069 85.729 206.746 197.55 3.267 113.029-86.63 206.049-200.622 209.295zM784.466 516.506c-39.629 1.219-76.81 17.828-104.192 46.592-27.372 29.174-41.677 66.068-40.448 105.37 2.447 80.63 68.229 143.053 149.545 143.053h4.495c82.534 0 147.497-70.124 144.64-151.962-2.458-82.248-70.697-145.48-154.040-143.053zM803.277 780.8h-51.2v-143.36h153.6v51.2h-102.4zM350.679 389.632c78.725 0 138.916 59.699 138.916 137.759s-60.201 137.759-138.916 137.759-138.916-59.699-138.916-137.759 60.201-137.759 138.916-137.759zM347.597 297.789c-106.506 0-322.56-55.101-322.56-160.717v-114.033h645.12v114.043c0 105.605-216.054 160.707-322.56 160.707z" />
<glyph unicode="&#xe90f;" glyph-name="younow-a-search" d="M439.296 208.384c-3.072 0-7.168 0-10.24 0-191.488 5.12-343.040 165.888-335.872 357.376 5.12 189.44 157.696 336.896 347.136 336.896 3.072 0 7.168 0 10.24 0 191.488-5.12 343.040-165.888 335.872-357.376-3.072-74.752-27.648-147.456-69.632-199.68-2.048-2.048 184.32-212.992 188.416-218.112 9.216-11.264 43.008-77.824-22.528-122.88-51.2-35.84-91.136-7.168-107.52 6.144-10.24 9.216-200.704 225.28-202.752 224.256-47.104-16.384-86.016-26.624-133.12-26.624v0zM439.296 786.944c-125.952 0-227.328-98.304-231.424-225.28s96.256-233.472 224.256-237.568c3.072 0 4.096 0 7.168 0 125.952 0 227.328 99.328 231.424 225.28 3.072 126.976-96.256 233.472-224.256 237.568-3.072 0-5.12 0-7.168 0v0z" />
<glyph unicode="&#xe910;" glyph-name="icon_chat" horiz-adv-x="1351" d="M1219.319 338.963c0-104.296-36.978-141.274-141.274-141.274l42.667-230.4-240.83 231.348h-602.074c-104.296 0-141.274 36.978-141.274 141.274v432.356c0.948 103.348 37.926 140.326 141.274 140.326h799.289c104.296 0 141.274-36.978 141.274-141.274v-432.356z" />
<glyph unicode="&#xe911;" glyph-name="icon_check" horiz-adv-x="1351" d="M1086.578 897.422l-549.926-707.319-296.77 241.778c-32.237 25.6-85.333 4.741-112.83-27.496-26.548-31.289-37.926-96.711-5.689-122.311 0 0 242.726-190.578 395.378-295.822 61.63-42.667 104.296 7.585 109.037 14.222l601.126 773.689c25.6 32.237 12.326 95.763-24.652 125.156-57.837 46.459-115.674-1.896-115.674-1.896z" />
<glyph unicode="&#xe912;" glyph-name="icon_close" horiz-adv-x="1351" d="M1049.6 899.319l-363.141-363.141-326.163 363.141c-25.6 25.6-67.319 25.6-93.867 0-25.6-25.6-25.6-67.319 0-93.867l325.215-363.141-366.933-368.83c-25.6-25.6-25.6-67.319 0-93.867 24.652-25.6 67.319-25.6 92.919 0l363.141 364.089 326.163-363.141c25.6-25.6 67.319-25.6 93.867 0 25.6 25.6 25.6 67.319 0 93.867l-326.163 362.193 367.881 368.83c25.6 25.6 25.6 67.319 0 93.867-25.6 25.6-67.319 25.6-92.919 0v0z" />
<glyph unicode="&#xe913;" glyph-name="icon_compose" horiz-adv-x="1351" d="M224 607.17c-0.948 34.133 18.963 53.096 40.77 53.096h401.067l-84.385-112.83h-216.178c-13.274-0.948-12.326-6.637-12.326-26.548l0.948-412.444c-1.896-19.911 4.741-26.548 27.496-26.548h520.533c16.119-0.948 31.289 0.948 30.341 24.652l-4.741 347.97c0 0.948 128.948 114.726 129.896 114.726l0.948-548.030c0-27.496-19.911-47.407-47.407-47.407h-740.504c-27.496 0-47.407 19.911-47.407 47.407l0.948 585.956zM636.444 395.733c9.481 33.185 26.548 92.919 28.444 100.504 9.481 40.77 28.444 73.007 58.785 101.452 70.163 66.37 136.533 135.585 204.8 202.904 2.844 2.844 4.741 6.637 7.585 10.43 41.719-40.77 80.593-78.696 120.415-117.57-2.844-3.793-5.689-6.637-8.533-9.481-80.593-80.593-161.185-160.237-241.778-240.83-5.689-4.741-12.326-9.481-19.911-11.378-46.459-13.274-92.919-26.548-140.326-39.822-1.896-0.948-3.793-1.896-5.689-2.844 0 3.793-1.896 4.741-3.793 6.637zM1181.63 838.519c-7.585-31.289-30.341-52.148-52.148-73.007-11.378-11.378-22.756-23.704-34.133-36.030-40.77 39.822-80.593 77.748-121.363 117.57 36.978 30.341 60.681 74.904 109.985 88.178 11.378 1.896 46.459 0.948 71.111-21.807 34.133-22.756 28.444-66.37 26.548-74.904z" />
<glyph unicode="&#xe914;" glyph-name="icon_flag" horiz-adv-x="1351" d="M1110.4 914.489c-11.378-9.481-17.067-13.274-21.807-18.015-61.63-53.096-129.896-79.644-211.437-55.941-59.733 17.067-118.519 36.030-177.304 54.993-91.97 29.393-178.252 28.444-250.311-44.563-14.222-15.17-26.548-39.822-26.548-60.681-1.896-128.948-0.948-258.844-0.948-387.793 0-11.378 1.896-22.756 2.844-42.667 92.919 102.4 198.163 95.763 308.148 54.993 38.874-14.222 77.748-27.496 117.57-38.874 91.022-26.548 173.511-13.274 241.778 55.941 9.481 9.481 18.015 25.6 18.015 38.874 0 145.067 0 290.133 0 443.733zM258.963 452.741c0 0 0.948 0 0 0 0-142.222 1.896-284.444-0.948-426.667-0.948-39.822 13.274-51.2 50.252-50.252 35.081 0.948 52.148 7.585 51.2 49.304-1.896 282.548-1.896 566.044 0 848.593 0 42.667-18.015 46.459-52.148 47.407-34.133 0-50.252-6.637-50.252-45.511 3.793-142.222 1.896-282.548 1.896-422.874z" />
<glyph unicode="&#xe915;" glyph-name="icon_languages" horiz-adv-x="1351" d="M858.311 82.963c55.941 18.015 108.089 45.511 154.548 83.437 44.563 36.030 82.489 78.696 110.933 128.948 27.496 49.304 43.615 100.504 50.252 156.444 6.637 52.148 0 102.4-14.222 151.704-12.326 45.511-35.081 87.23-63.526 125.156-37.926 51.2-84.385 91.97-139.378 124.207-52.148 32.237-107.141 53.096-165.926 64.474-159.289 23.704-298.667-20.859-329.956-34.133-68.267-29.393-128-72.059-175.407-128.948-54.044-63.526-87.23-136.533-96.711-219.97-5.689-53.096 0-104.296 13.274-154.548 11.378-42.667 31.289-83.437 58.785-118.519 19.911-26.548 43.615-49.304 65.422-74.904 3.793-4.741 7.585-11.378 7.585-17.067 0-6.637-2.844-14.222-5.689-20.859-16.119-40.77-43.615-73.956-77.748-102.4-18.015-15.17-25.6-22.756-42.667-38.874-5.689-5.689-21.807-40.77 36.978-36.030 50.252 0.948 87.23 5.689 129.896 16.119 27.496 6.637 53.096 16.119 79.644 26.548 36.030 13.274 71.111 28.444 106.193 42.667 7.585 2.844 15.17 6.637 22.756 5.689 127.052-14.222 237.037 8.533 274.963 20.859z" />
<glyph unicode="&#xe916;" glyph-name="icon_level" horiz-adv-x="1351" d="M670.222 869.926l129.896-302.459 290.133-2.844-249.363-204.8 89.126-289.185-250.311 146.963-269.274-146.963 89.126 289.185-249.363 204.8 290.133 2.844z" />
<glyph unicode="&#xe917;" glyph-name="icon_profile" horiz-adv-x="1351" d="M667.496 923.022c28.444-10.43 59.733-17.067 80.593-42.667 3.793-5.689 10.43-2.844 16.119-2.844 42.667 1.896 73.956-15.17 94.815-51.2 28.444-49.304 33.185-103.348 31.289-157.393-0.948-21.807-4.741-43.615-7.585-65.422-0.948-5.689-0.948-11.378 0.948-17.067 18.015-54.993 5.689-102.4-33.185-144.119-8.533-9.481-15.17-18.963-18.963-31.289-8.533-26.548-21.807-51.2-36.978-74.904-4.741-6.637-9.481-13.274-12.326-20.859-29.393-58.785-112.83-87.23-172.563-58.785-21.807 10.43-37.926 29.393-50.252 48.356-23.704 36.978-49.304 73.007-59.733 117.57-1.896 6.637-5.689 11.378-11.378 16.119-41.719 34.133-57.837 97.659-37.926 148.859 3.793 8.533 0 16.119-1.896 23.704-20.859 95.763-4.741 182.044 58.785 257.896 25.6 30.341 60.681 45.511 98.607 54.993 25.6 2.844 49.304 2.844 61.63-0.948zM350.815 197.689c56.889 33.185 171.615 52.148 183.941 54.993 13.274 3.793 27.496-0.948 36.030-11.378 40.77-46.459 158.341-40.77 209.541 0 10.43 8.533 18.963 8.533 32.237 5.689 58.785-12.326 114.726-31.289 166.874-59.733 24.652-13.274 47.407-30.341 68.267-48.356 43.615-38.874 54.993-88.178 47.407-144.119-1.896-16.119-9.481-34.133-26.548-34.133-272.119 0-523.378 0-795.496 0-22.756 0-33.185 15.17-38.874 28.444-10.43 28.444-6.637 100.504 30.341 143.17s56.889 49.304 86.281 65.422z" />
<glyph unicode="&#xe918;" glyph-name="younow-a-chat" horiz-adv-x="1351" d="M294.874 119.941c-25.6-25.6-49.304-50.252-74.904-73.956-6.637-6.637-18.963-12.326-27.496-10.43-14.222 1.896-14.222 15.17-14.222 27.496 0 95.763 0 190.578 0 286.341 0 28.444 4.741 33.185 33.185 33.185 95.763 0 191.526 0 287.289 0 11.378 0 24.652 0 25.6-13.274 0.948-8.533-3.793-19.911-9.481-26.548-26.548-27.496-54.044-54.044-81.541-82.489 25.6-34.133 57.837-59.733 94.815-78.696 159.289-82.489 357.452-2.844 414.341 166.874 4.741 15.17 7.585 31.289 11.378 46.459 4.741 18.963 13.274 26.548 32.237 26.548 44.563 0.948 89.126 0.948 133.689 0 21.807 0 32.237-13.274 29.393-36.978-12.326-97.659-49.304-184.889-113.778-258.844-84.385-97.659-192.474-154.548-320.474-166.874-157.393-15.17-294.874 34.133-405.807 148.859-2.844 2.844-5.689 5.689-8.533 8.533-0.948 0-2.844 0.948-5.689 3.793zM1033.481 759.941c25.6 25.6 49.304 49.304 73.956 73.956 8.533 8.533 16.119 18.963 30.341 12.326 13.274-6.637 13.274-18.963 13.274-30.341 0-93.867 0-187.733 0-282.548 0-26.548-6.637-34.133-32.237-34.133-94.815 0-190.578 0-285.393 0-11.378 0-23.704 0-29.393 13.274s3.793 20.859 11.378 29.393c26.548 26.548 52.148 52.148 79.644 79.644-18.015 25.6-40.77 45.511-65.422 61.63-179.2 117.57-414.341 17.067-454.163-193.422-3.793-21.807-13.274-29.393-35.081-29.393-42.667 0-85.333 0-128 0-24.652 0-35.081 12.326-32.237 36.978 22.756 200.059 169.719 367.881 365.985 413.393 176.356 40.77 331.852-1.896 463.644-126.104 7.585-6.637 14.222-15.17 23.704-24.652z" />
<glyph unicode="&#xe919;" glyph-name="younow-a-send" horiz-adv-x="1351" d="M400.119 524.8c2.844-13.274 8.533-24.652 18.963-34.133 12.326-10.43 36.030-15.17 50.252-2.844 15.17 13.274 31.289 26.548 45.511 40.77 40.77 37.926 72.059 70.163 112.83 108.089 0.948 0.948 3.793 4.741 5.689 6.637 0-2.844 0-4.741 0-6.637 0-90.074 0-332.8 0.948-422.874 0-11.378 0-22.756 0-34.133 0-8.533 0-17.067 0.948-24.652 1.896-10.43 8.533-23.704 17.067-28.444 11.378-7.585 29.393-10.43 43.615-5.689 10.43 2.844 13.274 7.585 19.911 15.17 5.689 6.637 8.533 21.807 8.533 31.289 0 61.63 0 274.963 0.948 335.644 0 43.615 0 87.23 0.948 130.844 0 1.896 0 4.741 0 8.533 5.689-5.689 10.43-9.481 15.17-13.274 24.652-22.756 50.252-45.511 74.904-67.319 23.704-20.859 47.407-42.667 71.111-63.526 5.689-4.741 11.378-9.481 18.963-10.43 9.481-1.896 16.119-1.896 23.704 0 30.341 5.689 40.77 38.874 26.548 60.681-7.585 12.326-18.015 22.756-28.444 33.185-65.422 63.526-129.896 127.052-194.37 191.526-9.481 9.481-19.911 18.963-34.133 20.859-8.533 0.948-16.119 1.896-24.652 1.896-15.17 0-28.444-4.741-38.874-16.119-18.963-18.963-38.874-36.978-57.837-54.993-54.993-54.044-102.4-102.4-156.444-156.444-8.533-8.533-18.963-17.067-20.859-30.341-0.948-4.741-0.948-8.533-0.948-13.274z" />
<glyph unicode="&#xe91a;" glyph-name="younow-a-settings" horiz-adv-x="1351" d="M186.667 438.519c0 49.304 6.637 69.215 8.533 88.178 1.896 14.222 7.585 20.859 22.756 21.807 14.222 0.948 33.185 0.948 47.407 1.896 36.978 2.844 51.2 19.911 60.681 54.993 2.844 10.43 2.844 16.119-3.793 24.652-16.119 21.807-32.237 43.615-49.304 65.422-5.689 7.585-6.637 13.274-0.948 21.807 34.133 49.304 76.8 91.022 126.104 126.104 8.533 5.689 14.222 5.689 21.807-0.948 20.859-17.067 42.667-33.185 65.422-48.356 4.741-3.793 12.326-7.585 17.067-5.689 15.17 4.741 30.341 11.378 44.563 18.015 3.793 1.896 6.637 8.533 7.585 13.274 3.793 25.6 8.533 51.2 10.43 76.8 0.948 17.067 8.533 23.704 23.704 24.652 20.859 1.896 40.77 8.533 77.748 8.533s66.37-1.896 82.489-8.533c18.963-6.637 25.6-8.533 26.548-26.548 0.948-12.326 4.741-70.163 4.741-70.163 1.896-16.119 10.43-27.496 49.304-33.185 0.948 0 18.963-1.896 24.652 1.896 22.756 15.17 44.563 31.289 65.422 48.356 10.43 8.533 17.067 6.637 26.548 0 48.356-34.133 89.126-74.904 123.259-123.259 6.637-9.481 5.689-15.17-0.948-23.704-17.067-20.859-33.185-42.667-48.356-65.422-3.793-4.741-5.689-13.274-4.741-18.963 3.793-14.222 9.481-27.496 16.119-39.822 2.844-4.741 9.481-9.481 15.17-10.43 25.6-4.741 52.148-8.533 78.696-11.378 14.222-1.896 18.963-7.585 21.807-20.859 8.533-51.2 8.533-101.452 2.844-152.652-3.793-33.185-3.793-33.185-37.926-36.978-8.533-0.948-18.015-2.844-26.548-3.793-49.304-5.689-49.304-5.689-68.267-52.148-2.844-6.637-0.948-17.067 2.844-22.756 16.119-22.756 33.185-44.563 50.252-66.37 5.689-7.585 6.637-14.222 0-22.756-35.081-49.304-76.8-91.022-126.104-126.104-8.533-5.689-14.222-5.689-22.756 0.948-12.326 9.481-26.548 17.067-36.978 28.444-25.6 27.496-53.096 31.289-83.437 10.43-5.689-3.793-12.326-11.378-14.222-18.015-5.689-27.496-8.533-55.941-13.274-83.437-0.948-5.689-8.533-13.274-14.222-14.222-58.785-10.43-117.57-10.43-175.407-0.948-11.378 1.896-16.119 7.585-17.067 18.963-1.896 15.17-5.689 37.926-5.689 46.459 0 37.926-18.015 56.889-52.148 64.474-6.637 1.896-16.119 0.948-20.859-2.844-22.756-15.17-43.615-31.289-65.422-48.356-9.481-7.585-16.119-8.533-26.548-0.948-41.719 29.393-77.748 64.474-109.037 104.296-23.704 30.341-22.756 30.341-0.948 59.733 4.741 6.637 9.481 14.222 15.17 19.911 28.444 24.652 30.341 53.096 10.43 83.437-3.793 5.689-10.43 12.326-16.119 13.274-25.6 4.741-52.148 9.481-78.696 11.378-16.119 1.896-20.859 10.43-22.756 24.652-1.896 18.963-7.585 36.030-7.585 76.8zM491.97 448.948c-1.896-95.763 75.852-176.356 169.719-180.148 95.763-3.793 184.889 72.059 185.837 177.304 0.948 96.711-76.8 177.304-175.407 178.252-109.037 1.896-182.044-85.333-180.148-175.407z" />
<glyph unicode="&#xe91b;" glyph-name="younow-a-download" horiz-adv-x="1351" d="M664.059 228.978c0 0 3.793-7.585 16.119-7.585s18.963 8.533 18.963 8.533l192.474 274.963c0 0 18.015 31.289-11.378 30.341h-80.593v285.393c0 0 3.793 31.289-24.652 31.289-27.496 0-186.785 0-186.785 0s-25.6 1.896-25.6-32.237 0-284.444 0-284.444h-82.489c-24.652-3.793-10.43-29.393-10.43-29.393l194.37-276.859zM958.933 53.57h-558.459c-36.030 0-66.37 18.963-87.23 44.563v0c-20.859 26.548-32.237 59.733-32.237 96.711v0 109.985c0 18.963 16.119 35.081 35.081 35.081v0c18.963 0 35.081-16.119 35.081-35.081v0-109.985c0-21.807 7.585-41.719 17.067-54.044v0c10.43-12.326 20.859-18.015 31.289-18.015v0h558.459c10.43 0 21.807 5.689 31.289 18.015v0c9.481 12.326 17.067 31.289 17.067 54.044v0 109.985c0 18.963 16.119 35.081 35.081 35.081v0c18.963 0 35.081-16.119 35.081-35.081v0-109.985c0-36.978-11.378-71.111-32.237-96.711v0c-18.015-26.548-49.304-44.563-85.333-44.563v0c0.948 0 0.948 0 0 0v0z" />
<glyph unicode="&#xe91c;" glyph-name="younow-a-email" horiz-adv-x="1351" d="M793.363 400.593l-122.311-115.674-122.311 115.674-282.548-257.896c0.948 0 1.896-0.948 2.844-0.948h800.237l-275.911 258.844zM671.052 366.459l409.6 385.896c-2.844 0-5.689 1.896-8.533 1.896h-803.081c-1.896 0-2.844-0.948-4.741-0.948l406.756-386.844zM1129.007 692.622c0 7.585-1.896 14.222-3.793 20.859l-288.237-272.119 285.393-266.43c4.741 8.533 7.585 18.015 7.585 28.444v489.244zM216.889 716.326c-2.844-7.585-4.741-15.17-4.741-23.704v-489.244c0-8.533 1.896-17.067 5.689-24.652l288.237 263.585-289.185 274.015z" />
<glyph unicode="&#xe91d;" glyph-name="younow-a-time" horiz-adv-x="1351" d="M667.496 31.881c-3.793 0-8.533 0-12.326 0-109.037 2.844-210.489 48.356-284.444 128-74.904 79.644-113.778 182.993-110.933 292.030 6.637 225.659 192.474 402.015 420.030 395.378 224.711-6.637 402.015-195.319 395.378-420.030-6.637-221.867-185.837-395.378-407.704-395.378zM666.548 734.459c-160.237 0-290.133-126.104-294.874-286.341-1.896-78.696 26.548-153.6 80.593-211.437s127.052-90.074 205.748-92.919c164.030-4.741 298.667 122.311 303.407 286.341 4.741 163.081-123.259 298.667-286.341 303.407-1.896 0.948-4.741 0.948-8.533 0.948zM601.126 677.57h96.711v-283.496h-96.711v283.496zM603.022 481.304h292.030v-96.711h-292.030v96.711z" />
<glyph unicode="&#xe91e;" glyph-name="younow-a-caret-up-down" horiz-adv-x="1352" d="M297.719 502.993h777.481l-385.896 395.378zM297.719 398.696h777.481l-385.896-395.378z" />
<glyph unicode="&#xe91f;" glyph-name="icon_exclamation" d="M614.205 71.229c0-53.477-43.352-96.829-96.829-96.829s-96.829 43.352-96.829 96.829c0 53.477 43.352 96.829 96.829 96.829s96.829-43.352 96.829-96.829zM599.409 243.937h-170.056l-51.63 672.543h279.306z" />
<glyph unicode="&#xe920;" glyph-name="icon_nudity" d="M822.272 652.8l156.672 143.36-26.624 28.672-187.392-172.032h-744.448v-268.288l41.984 3.072c8.192 1.024 16.384 1.024 24.576 1.024 103.424 0 194.56-51.2 248.832-130.048l-173.056-158.72 26.624-28.672 166.912 153.6c15.36-29.696 24.576-64.512 28.672-99.328l4.096-35.84h242.688l4.096 35.84c16.384 149.504 144.384 263.168 296.96 263.168 8.192 0 18.432 0 26.624-1.024l44.032-3.072v268.288h-181.248zM102.4 466.432v104.448h577.536l-283.648-261.12c-67.584 92.16-181.248 153.6-293.888 156.672zM921.6 466.432c-174.080-5.12-322.56-131.072-358.4-294.912h-106.496c-8.192 40.96-22.528 72.704-41.984 106.496l322.56 292.864h184.32v-104.448z" />
<glyph unicode="&#xe921;" glyph-name="icon_spam" d="M938.557 564.982h-370.76c-0.389-75.981-34.079-144.056-87.194-190.484l136.868-136.94 326.308 326.38c-1.823 0.174-3.328 1.044-5.222 1.044zM991.826 528.005l-350.956-350.966c-5.018-4.946-11.633-7.7-18.77-7.7-6.963 0-13.65 2.755-18.596 7.7l-162.406 162.478c-38.656-23.624-84.091-37.253-132.721-37.253-17.388 0-34.386 1.751-50.811 5.069v-221.716c0-29.133 23.542-52.695 52.767-52.695h632.863c29.082 0 52.705 23.562 52.705 52.695v422.031c0 7.199-1.454 14.111-4.076 20.357zM310.866 754.678c-87.429 17.101-172.452-40.131-189.532-127.549-9.411-48.21 3.84-95.621 32.215-131.4l225.137 227.983c-19.313 15.022-42.23 25.969-67.82 30.966zM195.707 458.476c15.954-9.789 33.772-17.101 53.187-20.879 87.429-17.101 172.452 40.131 189.542 127.58 8.192 41.923-0.84 83.22-21.985 116.818l-220.744-223.519zM279.89 854.282c-142.551 0-258.13-115.569-258.13-258.13s115.579-258.13 258.13-258.13 258.12 115.579 258.12 258.13-115.569 258.13-258.12 258.13zM238.111 382.444c-30.72 6.011-58.583 18.33-82.698 35.236l-0.748-0.748-5.407 5.356c-64.481 48.589-99.584 131.174-83.087 215.634 23.020 117.821 137.626 194.97 255.457 171.919 117.832-23.030 194.959-137.605 171.94-255.447-23.020-117.852-137.615-194.97-255.457-171.95z" />
<glyph unicode="&#xe922;" glyph-name="icon_underage" d="M516.055 917.934c-260.311 0-472.084-211.784-472.084-472.095s211.773-472.084 472.084-472.084 472.095 211.773 472.095 472.084-211.794 472.095-472.095 472.095zM108.001 445.839c0 225.004 183.050 408.054 408.044 408.054 115.917 0 220.611-48.66 294.963-126.525l-78.94-78.94c-24.156 15.278-53.934 23.040-89.518 23.040-23.091 0-42.568-2.785-58.44-8.356s-29.573-13.619-41.114-24.146c-15.462-14.858-26.798-32.123-34.017-49.654-6.799-20.019-10.619-44.032-11.438-64.512h82.33c-0.42 20.48 4.27 40.786 14.039 53.985 9.779 13.199 25.057 20.337 45.844 20.337 13.763 0 25.754-2.877 34.826-9.073l-260.424-260.762v338.872h-74.885c0 0-1.126-9.339-3.389-17.388-3.912-13.414-9.677-23.859-17.295-31.908-11.11-11.766-24.228-19.466-41.933-23.378-11.11-2.478-36.577-4.188-57.057-5.427v-55.020h102.4v-296.131l-87.747-88.023c-77.865 74.353-126.249 179.046-126.249 294.953zM696.873 541.778c0-26.419-9.769-43.95-29.297-52.613-9.175-4.188-24.136-6.779-44.677-7.844l72.98 72.98c0.635-3.973 0.993-8.141 0.993-12.524zM707.707 350.188c0-22.282-6.441-39.363-19.302-51.231s-27.935-17.797-45.24-17.797c-28.201 0-47.657 12.196-58.358 33.864-5.765 11.766-8.643 25.457-8.643 45.937h-76.36l108.923 105.196v-48.497c30.72 0 50.104-2.785 63.693-8.356 23.849-9.902 35.287-29.614 35.287-59.116zM516.055 37.796c-94.351 0-181.248 30.833-250.44 84.797l96.451 95.007h52.091v53.77l76.544 77.158c2.284-31.242 8.95-56.924 20.736-76.954 24.74-41.472 68.69-62.218 132.188-62.218 51.538 0 90.368 14.397 116.654 43.182 26.276 28.785 39.383 62.157 39.383 100.127 0 36.106-11.274 64.584-33.761 85.432-15.063 13.824-26.624 20.736-34.673 20.736 10.721 4.127 21.043 11.868 30.945 23.214 15.677 18.156 23.521 40.438 23.521 66.857 0 28.498-7.711 52.552-23.020 72.223l75.162 75.172c53.975-69.192 86.241-156.099 86.241-250.44 0.020-225.014-183.030-408.064-408.023-408.064z" />
<glyph unicode="&#xe923;" glyph-name="icon_delete" d="M974.336 163.738v0l-288.102 288.102 288.102 288.102c3.072 3.133 5.335 6.728 6.789 10.609 3.942 10.557 1.679 22.897-6.789 31.355l-136.11 136.11c-8.458 8.52-20.808 10.783-31.355 6.789-3.881-1.444-7.537-3.656-10.609-6.789v0l-288.102-288.102-288.164 288.102c-3.072 3.133-6.666 5.335-10.547 6.789-10.557 3.942-22.897 1.741-31.416-6.789l-136.11-136.11c-8.468-8.458-10.721-20.808-6.728-31.355 1.393-3.881 3.656-7.475 6.728-10.609v0l288.164-288.102-288.164-288.102c-3.072-3.123-5.335-6.728-6.728-10.609-3.942-10.557-1.741-22.897 6.728-31.355l136.11-136.11c8.52-8.52 20.869-10.783 31.416-6.789 3.881 1.444 7.475 3.656 10.547 6.789v0l288.164 288.102 288.102-288.102c3.072-3.133 6.728-5.335 10.609-6.789 10.557-3.942 22.897-1.741 31.355 6.789l136.11 136.11c8.52 8.458 10.783 20.808 6.789 31.355-1.454 3.881-3.707 7.485-6.789 10.609z" />
<glyph unicode="&#xe924;" glyph-name="icon_move" d="M990.546 448l-455.68 455.68v-273.408h-486.062v-364.544h486.062v-273.408l455.68 455.68z" />
<glyph unicode="&#xe925;" glyph-name="younow-a-bar" horiz-adv-x="1351" d="M611.556 320.948l-11.378-274.015 540.444 497.778c0 0 24.652 13.274 18.963 61.63s-26.548 154.548-26.548 154.548l-521.481-439.941zM262.637 448.948l311.941-125.156-10.43-274.015-392.533 174.459c0 0-18.963 21.807 0 54.044s91.022 170.667 91.022 170.667zM287.289 479.289l305.304-120.415 512 420.978c0 0-235.141 75.852-266.43 81.541s-58.785-14.222-58.785-14.222l-492.089-367.881z" />
<glyph unicode="&#xe926;" glyph-name="younow-a-minus" d="M15.36 547.328h993.28v-198.656h-993.28v198.656z" />
<glyph unicode="&#xe927;" glyph-name="younow-a-plus" d="M1008.64 348.672h-397.312v-397.312h-198.656v397.312h-397.312v198.656h397.312v397.312h198.656v-397.312h397.312z" />
<glyph unicode="&#x1f340;" glyph-name="icon_trash" d="M198.113 617.687v-573.174c0-31.508 25.805-57.313 57.313-57.313h515.85c31.508 0 57.313 25.805 57.313 57.313v573.174h-630.477zM370.063 101.837h-57.313v401.213h57.313v-401.213zM484.7 101.837h-57.313v401.213h57.313v-401.213zM599.337 101.837h-57.313v401.213h57.313v-401.213zM713.974 101.837h-57.313v401.213h57.313v-401.213zM842.936 789.637h-186.276v71.649c0 23.624-19.364 42.988-42.988 42.988h-200.612c-23.624 0-42.988-19.364-42.988-42.988v-71.649h-186.276c-23.675 0-42.988-19.313-42.988-42.988v-71.649h745.124v71.649c-0.010 23.675-19.384 42.988-42.998 42.988zM599.337 789.637h-171.95v56.535h171.95v-56.535z" />
</font>
</defs>
</svg>
