<?xml version="1.0" encoding="utf-8"?>
<!-- Generator: Adobe Illustrator 15.0.0, SVG Export Plug-In . SVG Version: 6.00 Build 0)  -->
<!DOCTYPE svg PUBLIC "-//W3C//DTD SVG 1.1//EN" "http://www.w3.org/Graphics/SVG/1.1/DTD/svg11.dtd">
<svg version="1.1" id="Layer_1" xmlns="http://www.w3.org/2000/svg" xmlns:xlink="http://www.w3.org/1999/xlink" x="0px" y="0px"
	 width="346.138px" height="58.004px" viewBox="0 0 346.138 58.004" enable-background="new 0 0 346.138 58.004"
	 xml:space="preserve">
<g>
	<path fill="#BCBCBC" d="M86.962,3.167l4.3,51.67h-6.468l-0.542-6.468H79.41l-0.542,6.468H72.4l4.3-51.67H86.962z M79.952,41.938
		h3.758l-1.879-22.475L79.952,41.938z"/>
	<path fill="#BCBCBC" d="M100.62,3.167v45.202h9.684v6.468H94.152V3.167H100.62z"/>
	<path fill="#BCBCBC" d="M119.662,3.167v45.202h9.684v6.468h-16.151V3.167H119.662z"/>
</g>
<g>
	<path fill="#BCBCBC" d="M154.165,3.167v6.468h-9.684v15.067h5.384v6.468h-5.384v17.199h9.684v6.468h-16.151V3.167H154.165z"/>
	<path fill="#BCBCBC" d="M175.917,3.167l-4.3,51.67h-10.262l-4.3-51.67h6.468l2.963,35.41l2.963-35.41H175.917z"/>
	<path fill="#BCBCBC" d="M194.959,3.167v6.468h-9.684v15.067h5.384v6.468h-5.384v17.199h9.684v6.468h-16.151V3.167H194.959z"/>
	<path fill="#BCBCBC" d="M216.133,3.167v51.67h-6.287l-5.528-23.703v23.703h-6.468V3.167h6.54l5.312,22.619V3.167H216.133z"/>
	<path fill="#BCBCBC" d="M236.259,3.167v6.468h-5.384v45.202h-6.468V9.635h-5.384V3.167H236.259z"/>
	<path fill="#BCBCBC" d="M251.001,3.167c1.469,0,2.734,0.53,3.794,1.59c1.06,1.061,1.59,2.325,1.59,3.794v11.852h-6.468v-9.684
		c0-0.723-0.361-1.084-1.084-1.084h-2.168c-0.699,0-1.048,0.361-1.048,1.084v9.286c0,0.241,0.072,0.458,0.217,0.65l8.961,11.671
		c1.06,1.35,1.59,2.879,1.59,4.589v12.538c0,1.494-0.53,2.759-1.59,3.794c-1.06,1.061-2.325,1.59-3.794,1.59h-6.468
		c-1.493,0-2.759-0.529-3.794-1.59c-1.061-1.035-1.59-2.3-1.59-3.794V37.602h6.468v9.72c0,0.699,0.349,1.048,1.048,1.048h2.168
		c0.723,0,1.084-0.349,1.084-1.048V36.915c0-0.24-0.072-0.457-0.217-0.65l-8.997-11.671c-1.036-1.349-1.554-2.878-1.554-4.589V8.551
		c0-1.469,0.529-2.733,1.59-3.794c1.035-1.06,2.301-1.59,3.794-1.59H251.001z"/>
</g>
<g>
	<path fill="#CCCCCC" d="M268.938,54.837h-7.2v-7.2h7.2V54.837z"/>
</g>
<text transform="matrix(1 0 0 1 273.9785 54.8369)" fill="#CCCCCC" font-family="'BahnPro'" font-size="2"> </text>
<g>
	<path fill="#CCCCCC" d="M295.079,3.087v51.336v0.414h-6.9l-6.9-25.393v25.393h-6.9V3.569V3.087h6.9l6.9,25.461V3.087H295.079z"/>
	<path fill="#CCCCCC" d="M320.608,3.087v25.806v3.45c0,1.932-1.518,3.45-3.45,3.45h-3.45v19.044h-6.9V35.793h-3.449
		c-1.932,0-3.45-1.519-3.45-3.45v-3.45V3.087h6.899v25.806h6.9V3.087H320.608z"/>
	<path fill="#CCCCCC" d="M339.237,3.087h6.9v6.899v12.145h-6.9V9.986h-6.9v37.95h6.9V35.793h6.9v12.144v6.9h-6.9h-6.9h-6.899v-6.9
		V9.986V3.087H339.237z"/>
</g>
<g>
	<path fill="#F7EC23" d="M84.031,1.172l4.3,51.669h-6.468l-0.542-6.467h-4.842l-0.542,6.467H69.47l4.3-51.669H84.031z
		 M77.021,39.943h3.758L78.9,17.468L77.021,39.943z"/>
	<path fill="#F7EC23" d="M97.689,1.172v45.203h9.684v6.467H91.222V1.172H97.689z"/>
	<path fill="#F7EC23" d="M116.731,1.172v45.203h9.684v6.467h-16.151V1.172H116.731z"/>
</g>
<g>
	<path fill="#F7EC23" d="M151.234,1.172V7.64h-9.684v15.067h5.384v6.468h-5.384v17.2h9.684v6.467h-16.151V1.172H151.234z"/>
	<path fill="#F7EC23" d="M172.986,1.172l-4.3,51.669h-10.262l-4.3-51.669h6.468l2.963,35.41l2.963-35.41H172.986z"/>
	<path fill="#F7EC23" d="M192.028,1.172V7.64h-9.684v15.067h5.384v6.468h-5.384v17.2h9.684v6.467h-16.151V1.172H192.028z"/>
	<path fill="#F7EC23" d="M213.202,1.172v51.669h-6.287l-5.528-23.703v23.703h-6.468V1.172h6.54l5.312,22.619V1.172H213.202z"/>
	<path fill="#F7EC23" d="M233.328,1.172V7.64h-5.384v45.202h-6.468V7.64h-5.384V1.172H233.328z"/>
	<path fill="#F7EC23" d="M248.07,1.172c1.47,0,2.733,0.53,3.794,1.59c1.06,1.061,1.59,2.325,1.59,3.794v11.852h-6.468V8.724
		c0-0.723-0.361-1.084-1.084-1.084h-2.168c-0.698,0-1.048,0.361-1.048,1.084v9.286c0,0.241,0.072,0.458,0.217,0.65l8.961,11.671
		c1.06,1.35,1.59,2.879,1.59,4.588v12.539c0,1.494-0.53,2.758-1.59,3.793c-1.061,1.061-2.324,1.59-3.794,1.59h-6.468
		c-1.494,0-2.758-0.529-3.794-1.59c-1.06-1.035-1.59-2.299-1.59-3.793V35.607h6.468v9.719c0,0.699,0.35,1.049,1.048,1.049h2.168
		c0.723,0,1.084-0.35,1.084-1.049V34.92c0-0.24-0.072-0.457-0.217-0.65l-8.997-11.67c-1.036-1.349-1.554-2.878-1.554-4.589V6.556
		c0-1.469,0.53-2.733,1.59-3.794c1.036-1.06,2.3-1.59,3.794-1.59H248.07z"/>
</g>
<g>
	<rect y="2.769" fill-rule="evenodd" clip-rule="evenodd" fill="#CCCCCC" width="53.193" height="7.157"/>
	<rect y="18.326" fill-rule="evenodd" clip-rule="evenodd" fill="#CCCCCC" width="53.193" height="7.157"/>
	<rect y="33.104" fill-rule="evenodd" clip-rule="evenodd" fill="#CCCCCC" width="53.193" height="7.157"/>
	<rect y="47.68" fill-rule="evenodd" clip-rule="evenodd" fill="#CCCCCC" width="53.193" height="7.157"/>
</g>
</svg>
