<?xml version="1.0" encoding="utf-8"?>
<!-- Generator: Adobe Illustrator 15.0.0, SVG Export Plug-In  -->
<!DOCTYPE svg PUBLIC "-//W3C//DTD SVG 1.1//EN" "http://www.w3.org/Graphics/SVG/1.1/DTD/svg11.dtd" [
	<!ENTITY ns_flows "http://ns.adobe.com/Flows/1.0/">
]>
<svg version="1.1"
	 xmlns="http://www.w3.org/2000/svg" xmlns:xlink="http://www.w3.org/1999/xlink" xmlns:a="http://ns.adobe.com/AdobeSVGViewerExtensions/3.0/"
	 x="0px" y="0px" width="418px" height="112px" viewBox="0 -20 418 112" overflow="visible" enable-background="new 0 -20 418 112"
	 xml:space="preserve">
<defs>
</defs>
<path id="rect3_2_" fill="#666666" d="M325.417,7.076l5.751-1.001c0,0-1.001,14.688-1.001,22.771s0,35.104,0,35.104h-4.75V7.076z"/>
<path id="path5_2_" fill="#666666" d="M372.167,57.075v-23.25c0,0-0.332-12.63-16.5-12.63c-16.166,0-16.625,11.88-16.625,11.88
	l5.125-0.017c0,0-0.25-8.108,11.375-8.108s11.5,9.375,11.5,9.375v5.608l-9.5,0.017c-13.562,0-20.25,5.188-20.25,12.5
	c0,7.312,4.063,12.5,14,12.5c9.938,0,15.5-7,15.5-7c0,2.875,1.5,6,1.5,6h5.5C373.792,63.95,372.167,60.389,372.167,57.075z
	 M367.042,48.764c0,8.438-10.188,12.125-15.312,12.125c-5.125,0-9.375-2.438-9.375-8.062s6.688-9.313,14.812-9.313h9.875V48.764z"/>
<path id="path7_2_" fill="#666666" d="M377.084,22.2h5l15.5,35.584L412.668,22.2h5.666c0,0-19.75,46.458-21.584,50.833
	s-6.209,8.417-11.582,8.417c-2.418,0-4.834-1.417-4.834-1.417l1.334-3.75c0,0,1.209,0.667,3.582,0.667c2.375,0,6.5-5.5,6.5-5.5
	l3-7.167L377.084,22.2z"/>
<path id="path9_2_" fill="#666666" d="M300.467,21.195c-8.873,0-14.818,7.28-14.982,7.484V22.2h-0.018h-4.732v57.75h4.732h0.018
	V57.1c0.162,0.272,4.798,7.852,15.107,7.852c10.5,0,18.625-6.75,18.625-22.211C319.217,27.277,309.467,21.195,300.467,21.195z
	 M299.717,61.075c-8.615,0-14.068-8.829-14.232-9.101V33.928c0.166-0.225,6.472-8.729,14.857-8.729c7.625,0,14,7.75,14,17.872
	C314.342,53.193,308.467,61.075,299.717,61.075z"/>
<path id="path39_2_" fill="#666666" d="M57.681,10.161c0,0-6.938-7.058-24.286-7.058C12.274,3.104,0,19.325,0,34.686
	c0,13.425,9.281,30.38,32.354,30.38c11.927,0,25.327-4.389,25.327-4.389s0-5.293,0-10.414c0-5.12,3.47-6.886,3.47-6.886H42.676
	l-6.506,3.615c3.492-0.884,12.751-0.774,12.751-0.774v12.908c0,0-4.099,2.323-10.321,2.323c-18,0-29.665-15.791-29.665-30.206
	c0-17.599,12.577-25.043,23.505-25.043c10.93,0,17.088,8.09,17.088,8.09l-1.996,3.271l3.21-0.859L57.681,10.161L57.681,10.161z"/>
<path id="path41_2_" fill="#666666" d="M87.044,21.361c-12.38,0-22.468,8.987-22.468,22.104c0,9.446,7.612,20.818,21.092,20.818
	c13.482,0,22.93-8.986,22.93-21.644C108.598,29.981,99.426,21.361,87.044,21.361z M87.961,61.531
	c-10.217,0-15.041-15.773-15.041-23.754c0-7.979,5.412-13.665,11.647-13.665c8.896,0,15.041,10.497,15.041,22.746
	C99.609,51.076,98.179,61.531,87.961,61.531z"/>
<path id="path43_2_" fill="#666666" d="M135.22,21.384c-12.375,0-22.458,8.983-22.458,22.092c0,9.441,7.608,20.809,21.083,20.809
	c13.476,0,22.917-8.98,22.917-21.633C156.762,30.001,147.596,21.384,135.22,21.384z M136.136,61.533
	c-10.211,0-15.033-15.768-15.033-23.742s5.41-13.657,11.642-13.657c8.893,0,15.035,10.492,15.035,22.732
	C147.78,51.083,146.35,61.533,136.136,61.533z"/>
<path id="path45_2_" fill="#666666" d="M192.313,61.241c-4.419-3.052-5.283-4.511-5.283-5.83c0-1.32,0.047-2.392,3.188-5.373
	c3.142-2.983,6.015-6.104,6.015-11.753c0-8.383-5.648-12.117-5.648-12.117l5.373-0.182l5.375-3.188c0,0-10.203,0-20.951,0
	c-10.75,0-18.857,8.291-18.857,17.219c0,6.285,5.328,13.799,15.852,13.799c1.093,0,1.822-0.228,1.822-0.228
	s-0.638,1.392-0.638,3.235c0,3.007,2.595,5.693,2.595,5.693s-24.277,0.021-24.277,15.576c0,9.404,10.613,12.938,19.312,12.938
	c8.701,0,23.596-4.69,23.596-16.674C199.784,68.645,196.735,64.294,192.313,61.241L192.313,61.241z M180.79,51.084
	c-6.354,0-11.41-9.496-11.41-15.235c0-5.74,2.869-9.84,7.925-9.84c5.058,0,11.067,5.808,11.067,16.398
	C188.372,46.098,187.145,51.084,180.79,51.084z M180.313,87.159c-2.939,0-15.441-1.161-15.441-11.067s14.414-10.83,16.088-10.83
	c1.676,0,3.109,0.24,3.109,0.24c4.442,3.928,9.36,5.876,9.36,12.021C193.429,86.341,183.249,87.159,180.313,87.159z"/>
<path id="path47_2_" fill="#666666" d="M200.259,3.27L206.252,0H219.4c-3.064,1.635-4.213,2.93-4.291,10.559
	c-0.08,7.627-0.479,46.482-0.479,46.482c0,2.908,2.529,3.695,4.81,3.695c2.072,0,3.023,0.402,3.023,0.402l-2.791,1.941H203.73
	c0,0,2.289-2.046,2.317-4.087l0.817-55.708L200.259,3.27L200.259,3.27z"/>
<path id="path49_2_" fill="#666666" d="M258.402,32.519c0,0-2.211-11.323-15.651-11.323s-20.44,10.589-20.44,20.991
	s6.17,22.097,21.545,22.097c10.771,0,15.651-8.011,15.651-8.011s-5.155,3.039-10.864,3.039c-8.562,0-18.506-9.023-18.506-22.279
	c0-8.933,6.229-12.522,10.129-12.522c7.826,0,9.252,7.044,8.563,8.286c-0.69,1.243-18.416,8.471-18.416,8.471l7.09-0.369
	L258.402,32.519L258.402,32.519z"/>
</svg>
