<?xml version="1.0" encoding="utf-8"?>
<!-- Generator: Adobe Illustrator 18.0.0, SVG Export Plug-In . SVG Version: 6.00 Build 0)  -->
<!DOCTYPE svg PUBLIC "-//W3C//DTD SVG 1.1//EN" "http://www.w3.org/Graphics/SVG/1.1/DTD/svg11.dtd">
<svg version="1.1" id="googleplay_1_" xmlns="http://www.w3.org/2000/svg" xmlns:xlink="http://www.w3.org/1999/xlink" x="0px"
	 y="0px" viewBox="0 0 142.5 108" enable-background="new 0 0 142.5 108" xml:space="preserve">
<g>
	<path fill="#666666" d="M37.1,13.6v74.8c0,0-0.4,7.1,4,7.8s6.1-0.8,7.5-2.5S81,54,81,54s2-1.8-0.2-3.9S48.6,10.8,48.6,10.8
		S45,6.8,40.9,7.9C37.4,8.8,37.1,13.6,37.1,13.6z"/>
	<polygon fill="#666666" points="56.2,14.8 84.2,49.8 94.9,36.9 	"/>
	<polygon fill="#666666" points="84.2,54.8 94.5,67.4 56,90 	"/>
	<path fill="#666666" d="M88.5,51.9l10.9,13.9l13.2-7.5c0,0,4-1.4,4.4-5.5s-4.6-6.8-4.6-6.8l-12.8-7.6L88.5,51.9z"/>
</g>
</svg>
