<?xml version="1.0" encoding="utf-8"?>
<!-- Generator: Adobe Illustrator 15.0.0, SVG Export Plug-In  -->
<!DOCTYPE svg PUBLIC "-//W3C//DTD SVG 1.1//EN" "http://www.w3.org/Graphics/SVG/1.1/DTD/svg11.dtd" [
	<!ENTITY ns_flows "http://ns.adobe.com/Flows/1.0/">
]>
<svg version="1.1"
	 xmlns="http://www.w3.org/2000/svg" xmlns:xlink="http://www.w3.org/1999/xlink" xmlns:a="http://ns.adobe.com/AdobeSVGViewerExtensions/3.0/"
	 x="0px" y="0px" width="444px" height="80px" viewBox="0 0 444 80" overflow="visible" enable-background="new 0 0 444 80"
	 xml:space="preserve">
<defs>
</defs>
<polygon fill="#dc7d32" points="41.983,0 54.957,26.288 83.966,30.503 62.975,50.963 67.93,79.855 41.983,66.215 16.036,79.855 
	20.991,50.963 0,30.503 29.01,26.288 "/>
<polygon fill="#dc7d32" points="132.079,0 145.052,26.288 174.062,30.503 153.07,50.963 158.025,79.855 132.079,66.215 
	106.132,79.855 111.087,50.963 90.096,30.503 119.105,26.288 "/>
<polygon fill="#dc7d32" points="222.045,0 235.02,26.288 264.029,30.503 243.038,50.963 247.993,79.855 222.045,66.215 
	196.099,79.855 201.054,50.963 180.063,30.503 209.073,26.288 "/>
<polygon fill="#dc7d32" points="312.141,0 325.116,26.288 354.124,30.503 333.133,50.963 338.088,79.855 312.141,66.215 
	286.195,79.855 291.15,50.963 270.159,30.503 299.168,26.288 "/>
<g>
	<path fill="#dc7d32" d="M444.252,30.503l-29.008-4.215L402.27,0l-12.973,26.288l-29.01,4.215l20.991,20.46l-4.955,28.893
		l25.946-13.641l25.947,13.641l-4.955-28.893L444.252,30.503z M402.27,61.554l-20.91,11l4.25-23.25l-17.221-16.168l23.221-3.332
		l10.66-20.75l10.66,20.75l23.221,3.332L418.93,49.304l4.25,23.25L402.27,61.554z"/>
</g>
</svg>
